<svg width="503" height="88" viewBox="0 0 503 88" fill="none" xmlns="http://www.w3.org/2000/svg">
<path d="M356.115 68.6132H355.752C336.375 68.6132 333.232 59.5735 333.071 54.1497L340.443 53.9087C340.645 59.9753 348.863 61.2208 355.793 61.2208H356.155C360.385 61.2208 365.139 61.2208 368.644 60.136C372.27 59.0111 372.995 57.2433 372.995 54.9131C372.995 51.3374 371.706 48.1233 356.034 47.8823C346.043 47.7216 332.789 46.1949 332.789 35.0259C332.789 30.044 334.763 26.2675 338.59 23.7364C342.458 21.2455 348.38 20 356.719 20C365.059 20 371.666 22.1695 375.815 26.388C380.367 31.0083 380.367 36.3115 380.367 36.9142L372.995 36.7535C372.995 35.8294 372.471 27.3522 356.719 27.3522C340.161 27.3522 340.161 32.3341 340.161 34.9857C340.161 36.191 340.363 36.9142 341.531 37.7177C343.223 38.8828 347.131 40.3291 356.196 40.4898C364.051 40.6104 380.367 40.8916 380.367 54.8729C380.367 59.0914 378.716 64.6759 370.82 67.0865C366.388 68.4525 361.151 68.4926 356.518 68.4926H356.155L356.115 68.6132Z" fill="white"/>
<path d="M407.926 42.2174L400.553 61.2208L393.181 20H385.688L394.43 68.6935H405.468L410.705 55.9577L407.926 42.2174Z" fill="white"/>
<path d="M414.005 7H406.512L407.116 14.2317H414.569L414.005 7Z" fill="#7AE8F8"/>
<path d="M391.493 7H384L384.564 14.2317H392.057L391.493 7Z" fill="#7AE8F8"/>
<path d="M431.211 42.2174H427.384L422.509 59.453L415.419 20H407.926L416.708 68.6935H427.706L431.211 55.9577V42.2174Z" fill="white"/>
<path d="M439.227 68.3721V20H445.954V68.3721H439.227Z" fill="white"/>
<path d="M495.629 68.6132V33.7001L484.107 60.2164H474.76L463.279 32.6957V68.6132H455.906V20H465.938L479.474 52.4222L493.574 20H503.001V68.6132H495.629Z" fill="white"/>
<path d="M173.238 61.995C168.048 56.4037 168.048 49.2839 168.087 48.1174V20H175.338V48.3989C175.338 48.3989 175.179 53.3869 178.586 56.9669C181.241 59.7826 185.48 61.1905 191.185 61.1905C196.89 61.1905 201.13 59.7826 203.784 56.9669C207.192 53.3466 207.073 48.3989 207.073 48.3587V48.238V48.1576V20H214.323V48.1174C214.323 49.2437 214.323 56.3635 209.133 61.9548C205.052 66.3393 199.03 68.5517 191.225 68.5517C183.42 68.5517 177.398 66.3393 173.317 61.9548L173.238 61.995Z" fill="white"/>
<path d="M244.188 68.5517H243.83C224.687 68.5517 221.583 59.5235 221.424 54.1066L228.707 53.8658C228.906 59.9248 237.024 61.1687 243.869 61.1687H244.228C248.406 61.1687 253.102 61.1687 256.565 60.0853C260.146 58.9618 260.863 57.1962 260.863 54.869C260.863 51.2978 259.589 48.0878 244.108 47.847C234.239 47.6865 221.146 46.1618 221.146 35.0069C221.146 30.0313 223.096 26.2596 226.876 23.7317C230.697 21.2439 236.547 20 244.785 20C253.023 20 259.549 22.1668 263.649 26.3799C268.146 30.9944 268.146 36.2909 268.146 36.8928L260.863 36.7323C260.863 35.8094 260.345 27.3429 244.785 27.3429C228.428 27.3429 228.428 32.3185 228.428 35.0069C228.428 36.2107 228.627 36.9329 229.781 37.7354C231.453 38.8991 235.313 40.3436 244.267 40.5041C252.028 40.6245 268.146 40.9053 268.146 54.869C268.146 59.0821 266.514 64.6596 258.714 67.0671C254.336 68.4313 249.162 68.4715 244.586 68.4715H244.228L244.188 68.5517Z" fill="white"/>
<path d="M318.178 26.7232H298V68.5517H291.275V26.7232H271.178V20H318.178V26.7232Z" fill="white"/>
<path d="M162.774 26.1895V20H135.845V26.1895H150.744V53.0377V53.1984C150.744 53.4798 150.823 56.4942 148.818 58.6645C147.246 60.3526 144.651 61.2368 141.152 61.2368C136.356 61.2368 133.015 59.9507 131.206 57.4186C129.87 55.5296 129.791 53.5602 129.791 53.52L122.597 53.5602C122.597 53.9621 122.675 57.6195 125.073 61.277C127.275 64.6129 131.835 68.5517 141.152 68.5517C146.813 68.5517 151.177 66.8637 154.165 63.6081C158.017 59.3478 157.978 54.0023 157.939 52.8367V26.1895H162.774Z" fill="white"/>
<g clip-path="url(#clip0_2243_1188)">
<path d="M0 26.6047C0 11.9113 11.9026 0 26.5852 0H61.3504C76.033 0 87.9356 11.9113 87.9356 26.6047V61.3953C87.9356 76.0887 76.033 88 61.3504 88H26.5852C11.9026 88 0 76.0887 0 61.3953V26.6047Z" fill="white"/>
<path fill-rule="evenodd" clip-rule="evenodd" d="M27.1241 21.7879L27.098 21.7879L26.9977 21.7879L27.098 21.7367C27.069 21.7367 27.0355 21.7365 26.9977 21.7362L26.9782 21.7361L26.9713 21.7361L26.9259 21.7358C26.8423 21.7353 26.7428 21.7349 26.6287 21.7357C26.7673 21.7347 26.8843 21.7355 26.9773 21.7361H26.9773C27.0231 21.7364 27.0631 21.7367 27.097 21.7367L26.9968 21.7879C28.4951 21.7879 29.9404 21.7855 31.3184 21.782C29.9934 21.7854 28.6063 21.7877 27.1696 21.7879L27.1241 21.7879ZM34.6419 21.7715C34.9646 21.7703 35.2821 21.7692 35.5941 21.768H35.5941C35.5944 21.768 35.5947 21.768 35.595 21.768H35.595C35.2827 21.7692 34.9649 21.7703 34.6419 21.7715ZM40.8854 21.7544C43.3707 21.7548 45.0406 21.774 45.5931 21.8391C46.1445 21.8904 47.2473 21.9928 48.4503 22.454C50.3049 23.12 51.5079 24.1959 52.1595 24.8108C54.8161 27.27 55.9189 30.3441 56.3199 31.8299L56.3208 31.8299C56.2998 31.7519 56.2768 31.6695 56.2518 31.5831C55.7998 30.0231 54.6777 27.1409 52.1605 24.8107C51.5088 24.1959 50.3058 23.12 48.4512 22.4539C47.2482 21.9928 46.1455 21.8904 45.5941 21.8391C45.0415 21.774 43.3712 21.7548 40.8854 21.7544ZM26.9474 27.8848H26.9466C22.5356 28.1922 18.9768 31.0101 18.0745 34.6478C17.4229 37.2608 18.1748 40.4373 19.879 42.333C20.681 43.2552 21.6334 43.7676 21.7336 43.8188C22.7583 44.3652 23.8622 44.6689 25.0452 44.6577C23.8625 44.6687 22.759 44.3651 21.7346 43.8188C21.6343 43.7676 20.682 43.2552 19.88 42.333C18.1757 40.4373 17.4238 37.2608 18.0755 34.6478C18.9777 31.0102 22.5365 28.1923 26.9474 27.8848ZM42.9866 44.4849L37.2724 50.7867L37.2733 50.7867L42.9876 44.4848L42.9866 44.4849ZM25.6943 50.7867H25.6935C25.6385 50.7898 25.567 50.793 25.4804 50.7951C25.5673 50.793 25.6391 50.7898 25.6943 50.7867ZM27.098 21.4899L27.1103 21.5411C30.2096 21.5409 33.0789 21.5304 35.5929 21.5213L35.5932 21.5213C37.0058 21.5161 38.3062 21.5114 39.4721 21.5091C42.7202 21.5027 44.9455 21.5149 45.6199 21.5937C46.1747 21.6453 47.3034 21.7502 48.5369 22.2226C50.4376 22.9057 51.6693 24.0083 52.329 24.6306C55.033 27.1343 56.1521 30.2583 56.5589 31.7655L56.6428 32.0766H49.3356L49.2742 31.9199C48.9742 31.1531 48.1049 29.1515 46.1602 28.3725C45.8653 28.2721 45.5917 28.1797 45.3221 28.1316H26.9562C22.6383 28.4358 19.1866 31.1923 18.3147 34.7075C17.6818 37.2456 18.417 40.3367 20.0633 42.1679L20.066 42.171C20.8385 43.0593 21.7596 43.5545 21.8467 43.599L21.8506 43.601C22.9665 44.1961 24.1733 44.4911 25.4754 44.3925L25.4918 44.3918L43.5488 44.2331L37.3826 51.0335H25.7014C24.7547 51.0859 19.3633 51.1276 15.2876 46.7014C12.8101 44.0124 11.9314 40.9075 11.6897 38.4117C11.4511 35.9472 11.8321 34.0621 11.9196 33.7241C12.1752 32.2654 12.942 28.8344 15.8437 25.8683C20.1241 21.4432 25.7287 21.4809 26.977 21.4893C27.0235 21.4896 27.0639 21.4899 27.098 21.4899ZM61.4842 66.6633L61.4881 66.6633L61.6168 66.6641L61.4902 66.6633C61.4443 66.663 61.4043 66.6628 61.3704 66.6628L61.3692 66.6628C61.402 66.6628 61.4404 66.663 61.4842 66.6633ZM63.1139 37.6534C62.9678 37.6549 62.8526 37.6594 62.7722 37.664H62.7739C62.8539 37.6594 62.9686 37.6549 63.1139 37.6534ZM44.2277 43.9658L49.9419 37.664H49.9398L44.2256 43.9658L44.2277 43.9658ZM63.3642 43.7931C64.5494 43.7809 65.6552 44.0846 66.6816 44.6319C66.7818 44.6831 67.7342 45.1955 68.5362 46.1177C70.2404 48.0134 70.9923 51.1899 70.3407 53.8029C69.4385 57.4405 65.8797 60.2583 61.4689 60.5658H61.4707C65.8817 60.2584 69.4405 57.4405 70.3428 53.8029C70.9944 51.1899 70.2425 48.0134 68.5383 46.1177C67.7363 45.1955 66.7839 44.6831 66.6837 44.6319C65.6567 44.0842 64.5502 43.7805 63.3642 43.7931ZM18.5136 56.6208H18.5115C18.5345 56.6914 18.5616 56.7741 18.5929 56.8676C19.1762 58.6059 21.2439 64.1032 26.3811 66.048C27.133 66.3554 28.0853 66.6116 29.2382 66.6628L29.5289 66.6629L29.2403 66.6628C28.0874 66.6115 27.1351 66.3554 26.3832 66.048C20.9697 63.9986 18.9647 58.0042 18.5136 56.6208ZM31.8447 66.714V66.7139C31.4071 66.6876 30.9563 66.6749 30.5058 66.6687C30.8721 66.6738 31.2387 66.6832 31.5981 66.7006C31.6804 66.7047 31.7633 66.7091 31.8447 66.714ZM72.6237 62.5301C75.4733 59.5654 76.2903 56.1366 76.5465 54.7274C76.6336 54.3917 77.0154 52.5055 76.7766 50.039C76.5349 47.5432 75.6562 44.4383 73.1786 41.7492C69.103 37.323 63.7115 37.3648 62.7649 37.4172H49.8306L43.6647 44.2172L62.9242 44.0595L62.9408 44.0582C64.2429 43.9596 65.4497 44.2546 66.5656 44.8497L66.5694 44.8517C66.6566 44.8962 67.5776 45.3914 68.3502 46.2797L68.3529 46.2827C69.9992 48.114 70.7343 51.2054 70.1014 53.7435C69.2295 57.2587 65.7779 60.0149 61.46 60.3191H29.5102C29.2409 60.2711 28.9676 60.1788 28.6731 60.0785C28.0737 59.8323 27.2902 59.3634 26.6595 58.7495C26.0232 58.13 25.575 57.3958 25.575 56.6208V56.3741H18.1716L18.2771 56.6974C18.5044 57.3945 19.1262 59.2631 20.3778 61.2178C21.6286 63.1712 23.5192 65.2274 26.2908 66.2776C27.0658 66.5941 28.0449 66.857 29.2273 66.9095H29.2382C30.0918 66.9095 30.9865 66.9096 31.8299 66.9603L32.0913 66.9761V66.9146C41.9832 67.1136 51.7268 67.062 61.3703 66.9095C61.4033 66.9096 61.4421 66.9098 61.4865 66.9101L61.4893 66.9101C62.7376 66.9185 68.3432 66.9557 72.6237 62.5301ZM31.8468 66.6628L31.8478 66.6629L32.0913 66.6678C33.4458 66.6951 34.7975 66.7176 36.1465 66.7358C34.7163 66.7165 33.2831 66.6923 31.8468 66.6628Z" fill="#3689FF"/>
</g>
<defs>
<clipPath id="clip0_2243_1188">
<rect width="87.9356" height="88" fill="white"/>
</clipPath>
</defs>
</svg>
